<?xml version="1.0" encoding="utf-8"?>
<!-- Generator: Adobe Illustrator 26.5.0, SVG Export Plug-In . SVG Version: 6.00 Build 0)  -->
<svg version="1.1" id="Layer_1" xmlns="http://www.w3.org/2000/svg" xmlns:xlink="http://www.w3.org/1999/xlink" x="0px" y="0px"
	 viewBox="0 0 166 56" style="enable-background:new 0 0 166 56;" xml:space="preserve">
<style type="text/css">
	.st0{fill-rule:evenodd;clip-rule:evenodd;fill:#898CA4;}
</style>
<path class="st0" d="M75.5,32l2.2,2.3c0.1,0.1,0.1,0.2,0,0.3c-1.6,1.5-3.8,2.5-6.4,2.5C65,37.2,61,32.8,61,26.9
	c0-5.8,4.2-10.3,10.1-10.3c2.9,0,5.2,1,6.9,2.6c0.1,0.1,0.1,0.2,0,0.3L75.7,22c-0.1,0.1-0.2,0.1-0.3,0c-1-1-2.5-1.7-4.2-1.7
	c-3.8,0-6,2.9-6,6.6s2.4,6.5,6.1,6.5c1.6,0,3-0.5,4-1.4C75.3,31.9,75.4,31.9,75.5,32z M90.2,35.3C89.6,36,88.1,37,85.6,37
	c-4.6,0-7.8-3.2-7.8-7.9c0-4.5,3.1-7.9,7.8-7.9c1.9,0,3.6,0.7,4.5,1.7v-1.2c0-0.1,0.1-0.2,0.2-0.2h3.2c0.1,0,0.2,0.1,0.2,0.2v14.8
	c0,0.1-0.1,0.2-0.2,0.2h-3.1c-0.1,0-0.2-0.1-0.2-0.2C90.2,36.6,90.2,35.3,90.2,35.3z M90,29.1c0-2.6-1.7-4.5-4.2-4.5
	c-2.6,0-4.2,1.9-4.2,4.5s1.7,4.5,4.2,4.5C88.4,33.6,90,31.7,90,29.1z M102.7,27.5c2.4,0.7,3.6,1.9,3.6,4.7c0,3.1-2.6,4.7-5.5,4.7
	c-4.1,0-5.4-2.3-5.4-4.9c0-0.1,0.1-0.2,0.2-0.2h3.2c0.1,0,0.2,0.1,0.2,0.2c0,1,0.5,1.8,1.8,1.8c1,0,1.8-0.5,1.8-1.4
	c0-0.9-0.5-1.3-1.5-1.6c-0.8-0.2-1.5-0.4-2.3-0.7c-2.1-0.8-3.2-2.2-3.2-4.5c0-2.6,2.2-4.4,5.2-4.4c3.1,0,5,1.5,5.1,4.6
	c0,0.1-0.1,0.2-0.2,0.2h-3.1c-0.1,0-0.2-0.1-0.2-0.2c-0.1-1-0.6-1.6-1.7-1.6c-0.9,0-1.5,0.5-1.5,1.3c0,0.7,0.4,1.2,1.3,1.4
	C101.3,27.2,101.9,27.3,102.7,27.5z M112.1,21.5h2.1c0.1,0,0.2,0.1,0.2,0.2v2.8c0,0.1-0.1,0.2-0.2,0.2h-2.1v7.1
	c0,1.1,0.4,1.6,1.4,1.6h0.7c0.1,0,0.2,0.1,0.2,0.2v2.9c0,0.1-0.1,0.2-0.2,0.2c-0.6,0.1-1.3,0.2-1.9,0.2c-2.9,0-4.1-1.5-4.1-4v-8.2
	H107c-0.1,0-0.2-0.1-0.2-0.2v-2.8c0-0.1,0.1-0.2,0.2-0.2h1.2v-1.3c0-0.1,0-0.1,0.1-0.2l3.4-2.1c0.1-0.1,0.2,0,0.3,0.1v0.1
	L112.1,21.5z M163.7,21.5h2.1c0.1,0,0.2,0.1,0.2,0.2v2.8c0,0.1-0.1,0.2-0.2,0.2h-2.1v7.1c0,1.1,0.4,1.6,1.4,1.6h0.7
	c0.1,0,0.2,0.1,0.2,0.2v2.9c0,0.1-0.1,0.2-0.2,0.2c-0.6,0.1-1.3,0.2-1.9,0.2c-2.9,0-4.1-1.5-4.1-4v-8.2h-1.2c-0.1,0-0.2-0.1-0.2-0.2
	v-2.8c0-0.1,0.1-0.2,0.2-0.2h1.2v-1.3c0-0.1,0-0.1,0.1-0.2l3.4-2.1c0.1-0.1,0.2,0,0.3,0.1v0.1L163.7,21.5z M116.3,36.8
	c-0.1,0-0.2-0.1-0.2-0.2V17.3c0-0.1,0.1-0.2,0.2-0.2h3.4c0.1,0,0.2,0.1,0.2,0.2v19.3c0,0.1-0.1,0.2-0.2,0.2H116.3z M122.3,36.8
	c-0.1,0-0.2-0.1-0.2-0.2V21.8c0-0.1,0.1-0.2,0.2-0.2h3.4c0.1,0,0.2,0.1,0.2,0.2v14.8c0,0.1-0.1,0.2-0.2,0.2H122.3z M124,16
	c1.3,0,2.3,1,2.3,2.3c0,1.2-1,2.2-2.2,2.3c-1.2,0-2.3-1-2.3-2.2C121.8,17,122.8,16,124,16z M143.2,21.5c0.1,0,0.2,0.1,0.2,0.2v12.5
	c0,5.7-3.4,7.8-8.1,7.8c-2.3,0-4.2-0.6-5.5-1.3c-0.1-0.1-0.1-0.2-0.1-0.3l1.1-2.6c0-0.1,0.2-0.2,0.3-0.1c0.9,0.5,2.5,1,4.2,1
	c2.4,0,4.3-1,4.3-3.2v-0.2c-0.7,0.8-2,1.7-4.2,1.7c-4.7,0-7.9-3.2-7.9-7.8c0-4.4,3.2-7.9,7.7-7.9c2,0,3.6,0.7,4.5,1.7v-1.2
	c0-0.1,0.1-0.2,0.2-0.2L143.2,21.5z M139.7,29.2c0-2.6-1.7-4.5-4.2-4.5c-2.6,0-4.2,1.9-4.2,4.5s1.7,4.5,4.2,4.5
	C138.1,33.6,139.7,31.7,139.7,29.2z M153.5,27.2c0-1.5-0.7-2.4-2-2.4c-1.4,0-2.1,1-2.1,2.4v9.4c0,0.1-0.1,0.2-0.2,0.2h-3.4
	c-0.1,0-0.2-0.1-0.2-0.2V17.3c0-0.1,0.1-0.2,0.2-0.2h3.4c0.1,0,0.2,0.1,0.2,0.2v5.4c0.4-0.5,1.3-1.3,3.2-1.3c3.5,0,4.7,2.4,4.7,5.4
	v9.8c0,0.1-0.1,0.2-0.2,0.2h-3.4c-0.1,0-0.2-0.1-0.2-0.2V27.2z M29.9,14c0,0.1-0.1,0.1-0.2,0.1L28.9,14c-0.1,0-0.2-0.1-0.2-0.2
	l0.9-13.7c0-0.1,0.1-0.2,0.2-0.2l1.9,0.3c0.1,0,0.2,0.1,0.2,0.2L29.9,14z M26.9,13.9c0,0.1-0.1,0.2-0.2,0.2H26c-0.1,0-0.2,0-0.2-0.1
	l-2-13.5c0-0.1,0.1-0.2,0.1-0.2l2-0.3c0.1,0,0.2,0.1,0.2,0.2L26.9,13.9z M24,14.2c0,0.2,0,0.3-0.2,0.4l-0.6,0.2
	c-0.2,0.1-0.3,0-0.4-0.2L18.2,2c-0.1-0.2,0-0.3,0.2-0.4L20,1.1c0.2-0.1,0.3,0,0.4,0.2L24,14.2z M21.2,15.3c0.1,0.1,0,0.3-0.1,0.4
	L20.6,16c-0.1,0.1-0.3,0-0.4-0.1L13.1,4.6c-0.1-0.1,0-0.3,0.1-0.4l1.5-0.9c0.1-0.1,0.3,0,0.4,0.1L21.2,15.3z M18.8,17
	c0.1,0.1,0.1,0.3,0,0.4l-0.4,0.4c-0.1,0.1-0.3,0.1-0.4,0L8.6,8.2c-0.1-0.1-0.1-0.3,0-0.4l1.3-1.2c0.1-0.1,0.3-0.1,0.4,0L18.8,17z
	 M16.7,19.1c0.1,0.1,0.1,0.2,0.1,0.3L16.4,20c-0.1,0.1-0.3,0.2-0.4,0.1L4.9,12.6c-0.1-0.1-0.2-0.3-0.1-0.4l1-1.4
	c0.1-0.1,0.3-0.1,0.4,0C6.3,10.8,16.7,19.1,16.7,19.1z M3.2,15.7l11.9,6c0.2,0,0.2,0.2,0.2,0.4L15,22.6c-0.1,0.1-0.2,0.2-0.4,0.2
	l-12.4-5C2,17.7,2,17.6,2,17.4l0.7-1.6C2.8,15.7,3,15.6,3.2,15.7C3.1,15.7,3.1,15.7,3.2,15.7z M14.1,24.5c0.2,0,0.2,0.2,0.2,0.4
	c-0.1,0.2-0.1,0.4-0.1,0.6s-0.2,0.3-0.3,0.2L0.7,23.4c-0.2,0-0.3-0.2-0.2-0.3l0.4-1.7c0-0.2,0.2-0.3,0.3-0.2L14.1,24.5z M13.8,27.4
	c0.1,0,0.2,0.1,0.2,0.2v0.8c0,0.1-0.1,0.2-0.2,0.2L0.2,29.2C0.1,29.2,0,29.1,0,29v-2c0-0.1,0.1-0.2,0.2-0.2L13.8,27.4z M13.9,30.3
	c0.1,0,0.2,0,0.2,0.1c0.1,0.3,0.1,0.5,0.2,0.8c0,0.1,0,0.2-0.1,0.2L1,34.9c-0.1,0-0.2,0-0.2-0.1l-0.4-1.9c0-0.1,0-0.2,0.1-0.2
	L13.9,30.3z M2.1,38.3l12.6-5c0.1,0,0.2,0,0.2,0.1c0.1,0.3,0.2,0.5,0.3,0.7c0,0.1,0,0.2-0.1,0.2L3,40.4c-0.1,0-0.2,0-0.2-0.1L2,38.5
	C2,38.4,2,38.3,2.1,38.3z M4.8,43.4l11.3-7.6c0.1-0.1,0.2-0.1,0.2,0c0.1,0.2,0.3,0.4,0.5,0.7c0.1,0.1,0.1,0.2,0,0.2L6.2,45.3
	c-0.1,0.1-0.2,0.1-0.2,0l-1.2-1.6C4.7,43.6,4.7,43.5,4.8,43.4z M8.5,47.9l9.5-9.8c0.1-0.1,0.2,0,0.2,0c0.2,0.2,0.4,0.4,0.6,0.6
	c0.1,0.1,0.1,0.2,0,0.2l-8.7,10.5c-0.1,0.1-0.2,0.1-0.2,0l-1.5-1.3C8.4,48.1,8.4,48,8.5,47.9z M13,51.5L20.3,40
	c0-0.1,0.1-0.1,0.2-0.1l0.7,0.4c0.1,0,0.1,0.2,0.1,0.2L15,52.7c0,0.1-0.1,0.1-0.2,0.1l-1.7-1C13,51.7,13,51.6,13,51.5z M18.2,54.1
	l4.7-12.8c0-0.1,0.1-0.1,0.2-0.1l0.7,0.2c0.1,0,0.1,0.1,0.1,0.2l-3.7,13.2c0,0.1-0.1,0.1-0.2,0.1l-1.9-0.6
	C18.2,54.3,18.1,54.2,18.2,54.1z M23.8,55.5l2-13.5c0-0.1,0.1-0.1,0.2-0.1l0.8,0.1c0.1,0,0.1,0,0.2,0.1l-0.9,13.7
	c0,0.1-0.1,0.2-0.2,0.2L24,55.8C23.8,55.7,23.8,55.6,23.8,55.5z M29.6,55.8l-0.9-13.7c0-0.1,0.1-0.2,0.2-0.2l0.8-0.1
	c0.1,0,0.2,0.1,0.2,0.1l2,13.5c0,0.1-0.1,0.2-0.1,0.2L29.7,56C29.6,56,29.6,55.9,29.6,55.8z M31.6,41.6c0-0.1,0-0.2,0.1-0.2l0.8-0.3
	c0.1,0,0.2,0,0.2,0.1L37.4,54c0,0.1,0,0.2-0.1,0.2L35.5,55c-0.1,0-0.2,0-0.2-0.1C35.3,54.8,31.6,41.6,31.6,41.6z M34.4,40.3l0.7-0.4
	c0.1,0,0.2,0,0.2,0.1l7.3,11.5c0.1,0.1,0,0.2-0.1,0.2l-1.7,1c-0.1,0-0.2,0-0.2-0.1l-6.3-12.1C34.3,40.5,34.3,40.4,34.4,40.3z
	 M37.4,38.1c0.1-0.1,0.2-0.1,0.2-0.1l9.5,9.8c0.1,0.1,0.1,0.2,0,0.2l-1.5,1.3c-0.1,0.1-0.2,0.1-0.2,0l-8.7-10.5
	c-0.1-0.1-0.1-0.2,0-0.2C37,38.5,37.2,38.3,37.4,38.1z M39.3,35.9c0.1-0.1,0.2-0.1,0.2,0l11.3,7.6c0.1,0.1,0.1,0.2,0,0.2l-1.2,1.6
	c-0.1,0.1-0.2,0.1-0.2,0l-10.7-8.5c-0.1-0.1-0.1-0.2,0-0.2C39,36.3,39.2,36.1,39.3,35.9z M50.8,12.6l-11.3,7.6
	c-0.1,0.1-0.2,0.1-0.2,0c-0.2-0.2-0.3-0.4-0.5-0.7c-0.1-0.1-0.1-0.2,0-0.2l10.7-8.5c0.1-0.1,0.2-0.1,0.2,0l1.2,1.6
	C50.9,12.4,50.9,12.5,50.8,12.6C50.9,12.6,50.9,12.6,50.8,12.6z M47.2,8.1l-9.5,9.8c-0.1,0.1-0.2,0.1-0.2,0
	c-0.2-0.2-0.4-0.4-0.6-0.6c-0.1-0.1-0.1-0.2,0-0.2l8.7-10.5c0.1-0.1,0.2-0.1,0.2,0l1.5,1.3C47.2,7.9,47.2,8,47.2,8.1z M42.6,4.5
	L35.4,16c0,0.1-0.2,0.1-0.2,0.1l-0.7-0.4c-0.1,0-0.1-0.1-0.1-0.2l6.3-12.1c0-0.1,0.1-0.1,0.2-0.1l1.7,1C42.7,4.3,42.7,4.4,42.6,4.5z
	 M32.7,14.7c0,0.1-0.1,0.1-0.2,0.1l-0.8-0.3c-0.1,0-0.1-0.1-0.1-0.2l3.7-13.2C35.3,1,35.4,1,35.5,1l1.9,0.6c0.1,0,0.1,0.1,0.1,0.2
	L32.7,14.7z"/>
</svg>
