<svg width="129" height="52" viewBox="0 0 129 52" fill="none" xmlns="http://www.w3.org/2000/svg">
<g clip-path="url(#clip0_520_2650)">
<mask id="mask0_520_2650" style="mask-type:alpha" maskUnits="userSpaceOnUse" x="0" y="0" width="129" height="52">
<path d="M0 52H128.143V0H0V52Z" fill="white"/>
</mask>
<g mask="url(#mask0_520_2650)">
<path fill-rule="evenodd" clip-rule="evenodd" d="M50.5749 6.20455C50.5749 2.88058 48.1278 0 44.1973 0C40.267 0 37.8199 2.88058 37.8199 6.20455C37.8199 9.52852 40.267 12.4094 44.1973 12.4094C48.1278 12.4094 50.5749 9.52852 50.5749 6.20455ZM11.939 33.9039C11.939 36.4892 14.9053 51.0402 33.3706 51.0402H34.8536C34.8536 48.4552 31.887 33.9039 13.4225 33.9039H11.939ZM13.4225 32.574C30.5525 32.574 34.557 18.3182 34.557 15.8807H33.0738C15.9436 15.8807 11.939 30.1371 11.939 32.574H13.4225ZM117.539 34.3465C117.539 40.8467 113.534 43.8756 109.529 43.8756C105.154 43.8756 102.336 39.4433 102.336 33.4603C102.336 27.5508 105.302 23.0457 109.9 23.0457C113.682 23.0457 117.539 26.1479 117.539 32.574V34.3465ZM128.143 15.8807H117.836V20.6818C116.055 16.9886 111.902 14.9207 107.082 14.9207C98.332 14.9207 91.4347 22.0116 91.4347 33.4603C91.4347 44.9837 98.1093 52 106.563 52C112.496 52 116.055 49.1197 117.836 45.9435V51.0402H128.143V15.8807ZM66.1475 51.0402H78.4573L90.7681 15.8807H80.1631C80.1631 15.8807 74.3791 35.0121 72.6736 41.0685H72.5252C70.8195 35.0121 64.9612 15.8807 64.9612 15.8807H53.6895L66.1475 51.0402ZM38.858 51.0402H49.5365V15.8807H38.858V51.0402ZM0 51.0402H10.6785V0.886523H0V51.0402Z" fill="#8993A4"/>
</g>
</g>
<defs>
<clipPath id="clip0_520_2650">
<rect width="128.143" height="52" fill="white"/>
</clipPath>
</defs>
</svg>
