<?xml version="1.0" encoding="utf-8"?>
<!-- Generator: Adobe Illustrator 26.5.0, SVG Export Plug-In . SVG Version: 6.00 Build 0)  -->
<svg version="1.1" id="NASA_insignia_color" xmlns="http://www.w3.org/2000/svg" xmlns:xlink="http://www.w3.org/1999/xlink"
	 x="0px" y="0px" viewBox="0 0 318.8 274.6" style="enable-background:new 0 0 318.8 274.6;" xml:space="preserve">
<style type="text/css">
	.st0{fill:#FFFFFF;}
	.st1{fill:#8993A4;}
	.st2{fill:#EBECEF;}
</style>
<g>
	<ellipse class="st0" cx="148.2" cy="137.3" rx="126.1" ry="125.9"/>
	<path class="st1" d="M231.7,160.7c-0.1,0.1,18.2,0,28.1,0.1c0,0-2.5-0.7-3.9-4.2c-5.4-13.3-12.6-34.8-15.8-42.6c0,0-8.5,0-20,0
		h-3.6c2.4,2.3,4.1,4.8,4,5.4c-0.7,3.7-2.3,9.3-4.1,15.7c-1.8,6.2-3.8,13.1-5.6,19.4c0,0,0.4,1.4-6.1,5.9c0,0,11.9,0.2,15.4,0
		c-0.5,0-4.7-3.4-1.5-10.7h15.4C236,156.3,236.7,156.3,231.7,160.7z M219.9,143.9c0,0,1.4-4.4,2.7-8.7c1.4-4.4,2.7-8.7,2.7-8.7
		l6.8,17.4H219.9z"/>
	<path class="st2" d="M9.2,173.6c23.7-15.8,46.2-26,84.4-38.6c53.7-17.7,94.2-29.7,143.8-54.6c24.2-12.1,59.9-35.7,74.2-58.4
		c-4.1,8.4-16.6,25.3-22.4,32.5c-67.3,84.3-210.7,79.5-279,120"/>
	<path class="st1" d="M209.5,153.8c-1.8-4.1-3.9-8.4-6.3-12.7c-16.8-30.8-47.9-67.7-80.3-82C79.4,39.8,75.9,84,100,127.3
		c10.5,18.9,20.8,32.8,31.5,45.7c0,0,14.5,23.7,20.5,18.3c5.3-4.8-9.8-9.8-17.6-19.8c-10.2-13.1-23.2-27.1-33.3-47.7
		C69.9,60,97.1,40.1,141.6,72.6c2.6,1.9,5.5,4.2,8.4,6.7c0.4,0.4,0.8,0.7,1.3,1.1c0.1,0.1,0.1,0.1,0.2,0.2
		c11,9.5,24.2,23.1,35.8,38.9c0.5,0.7,1,1.4,1.6,2.2c0.3,0.4,0.6,0.8,0.9,1.3c0.9,1.3,1.9,2.7,2.8,4c28.8,42.9,37.9,98.8-15.8,76.7
		l0.3,0.6C233.9,228.2,216.1,168.9,209.5,153.8z"/>
	<path class="st1" d="M43.6,113c21.6,0.2,19.6,0,19.8,0.2c0.4,0,17.3,29.2,17.3,29.4c0,0.1-0.1-10.4-0.1-23.5c0-1.5-4.2-5.9-4-5.9
		c6.2,0,14.3,0.1,14.3,0.1c-3,3.5-3.6,3.2-3.7,5.4c-0.1,7-0.2,20,0,34.6c0,2.2,1.6,3,4.3,6.8H71.6c-6.4-10.7-18.3-30.9-18.2-30.8
		c0.1,0.1-0.3,12.6,0.1,22.7c0.1,3.3,1.6,4.4,4.4,7.5c0,0,3.2-0.1-15.5,0.1c5.7-3,4.9-6.8,4.9-6.9c-0.2-14,0-25.9,0-33.6
		c0-1.3-0.1-1.1-4-5.9"/>
	<path class="st1" d="M197.3,124.9c-0.3-9,0-11.9,0-11.9c-3.9,3.2-1.9,2.8-11.8,1.1c-28.3-4.7-30.5,21.7-15,27.7
		c12.9,5,17.5,5.9,15.5,10.6c-0.6,1.5-12.4,7.1-24.5-4.2l0.3,15.7c1.5-1.6,5.7-4.4,5.7-4.4c0.1,0,13.1,5.7,24.9-0.3
		c18.1-9.2,9.1-24.1-10.2-30.1c-16.1-4.9-0.9-16.4,15-4.2"/>
	<path class="st2" d="M280.9,62.8c-69.1,63.7-91.9,70.6-132,97.8c-20.2,13.7-54.5,34.4-87.2,66.9c-6.3,5.5-12.8,11.4-19.4,17.5
		l-0.3,4.3c6-6.2,13.3-12.8,21.8-19.9l0,0c24.8-21,55.9-43.7,87.1-63.9c64.8-42,141.8-86,161-143L280.9,62.8z"/>
	<path class="st1" d="M126.8,160.1c-0.1,0.1,18.2,0,28.1,0.1c0,0-2.5-0.7-3.9-4.2c-5.4-13.3-12.6-34.8-15.8-42.5
		c0,0-12.1-0.1-23.7-0.1l0.2,0.4c2.4,2.3,3.9,4.5,3.8,5.2c-0.7,3.7-2.3,9.3-4.1,15.7c-1.8,6.2-3.8,13.1-5.6,19.4
		c0,0,0.4,1.4-6.1,5.9c0,0,11.9,0.2,15.4,0c-0.5,0-4.7-3.4-1.5-10.7H129C131.1,155.7,131.8,155.7,126.8,160.1z M114.9,143.3
		c0,0,1.4-4.4,2.7-8.7c1.4-4.4,2.7-8.7,2.7-8.7l6.8,17.4H114.9z"/>
	<path class="st1" d="M150,22.8c0,0.6-0.5,1-1,1c-0.6,0-1-0.5-1-1c0-0.6,0.5-1,1-1C149.5,21.8,150,22.2,150,22.8z"/>
	<path class="st1" d="M157.1,38.4c0,0.7-0.6,1.3-1.3,1.3c-0.7,0-1.3-0.6-1.3-1.3c0-0.7,0.6-1.3,1.3-1.3
		C156.5,37.1,157.1,37.7,157.1,38.4z"/>
	<path class="st1" d="M175.6,63.8c0,0.7-0.6,1.3-1.3,1.3c-0.7,0-1.3-0.6-1.3-1.3c0-0.7,0.6-1.3,1.3-1.3
		C175,62.5,175.6,63.1,175.6,63.8z"/>
	<path class="st1" d="M145.9,47.1c0,0.6-0.5,1-1,1c-0.6,0-1-0.5-1-1c0-0.6,0.5-1,1-1C145.4,46.1,145.9,46.5,145.9,47.1z"/>
	<path class="st1" d="M156.9,53c0,0.6-0.5,1-1,1c-0.6,0-1-0.5-1-1c0-0.6,0.5-1,1-1C156.5,51.9,156.9,52.4,156.9,53z"/>
	<path class="st1" d="M142.6,36.6c0,0.7-0.6,1.3-1.3,1.3c-0.7,0-1.3-0.6-1.3-1.3c0-0.7,0.6-1.3,1.3-1.3
		C142,35.4,142.6,35.9,142.6,36.6z"/>
	<path class="st1" d="M125.8,46.8c0,0.6-0.5,1-1,1s-1-0.5-1-1s0.5-1,1-1S125.8,46.2,125.8,46.8z"/>
	<path class="st1" d="M128.8,48.8c0,0.6-0.5,1-1,1c-0.6,0-1-0.5-1-1c0-0.6,0.5-1,1-1C128.4,47.8,128.8,48.3,128.8,48.8z"/>
	<path class="st1" d="M131.8,50.9c0,0.6-0.5,1-1,1c-0.6,0-1-0.5-1-1c0-0.6,0.5-1,1-1C131.4,49.9,131.8,50.3,131.8,50.9z"/>
	<path class="st1" d="M127.2,54.8c0,0.6-0.5,1-1,1c-0.6,0-1-0.5-1-1c0-0.6,0.5-1,1-1C126.8,53.8,127.2,54.3,127.2,54.8z"/>
	<path class="st1" d="M103.4,71.6c0,0.6-0.5,1-1,1c-0.6,0-1-0.5-1-1c0-0.6,0.5-1,1-1C102.9,70.5,103.4,71,103.4,71.6z"/>
	<path class="st1" d="M107.8,76.9c0,0.6-0.5,1-1,1c-0.6,0-1-0.5-1-1c0-0.6,0.5-1,1-1C107.3,75.9,107.8,76.4,107.8,76.9z"/>
	<path class="st1" d="M104.3,163.6c0,0.6-0.5,1-1,1c-0.6,0-1-0.5-1-1s0.5-1,1-1C103.9,162.6,104.3,163,104.3,163.6z"/>
	<path class="st1" d="M105,187.5c0,0.7-0.6,1.3-1.3,1.3c-0.7,0-1.3-0.6-1.3-1.3c0-0.7,0.6-1.3,1.3-1.3
		C104.4,186.2,105,186.8,105,187.5z"/>
	<path class="st1" d="M91.4,199.7c0,0.6-0.5,1-1,1c-0.6,0-1-0.5-1-1s0.5-1,1-1C90.9,198.7,91.4,199.2,91.4,199.7z"/>
	<path class="st1" d="M75.1,204.7c0,0.7-0.6,1.3-1.3,1.3c-0.7,0-1.3-0.6-1.3-1.3c0-0.7,0.6-1.3,1.3-1.3
		C74.5,203.4,75.1,204,75.1,204.7z"/>
	<path class="st1" d="M71.8,193.7c0,0.7-0.6,1.3-1.3,1.3c-0.7,0-1.3-0.6-1.3-1.3c0-0.7,0.6-1.3,1.3-1.3
		C71.2,192.4,71.8,193,71.8,193.7z"/>
	<path class="st1" d="M69.9,200.7c0,0.6-0.5,1-1,1c-0.6,0-1-0.5-1-1c0-0.6,0.5-1,1-1C69.4,199.6,69.9,200.1,69.9,200.7z"/>
	<path class="st1" d="M57.7,194.8c0,0.6-0.5,1-1,1c-0.6,0-1-0.5-1-1s0.5-1,1-1C57.3,193.8,57.7,194.3,57.7,194.8z"/>
	<path class="st1" d="M100.2,214.6c0,0.6-0.5,1-1,1c-0.6,0-1-0.5-1-1c0-0.6,0.5-1,1-1C99.8,213.5,100.2,214,100.2,214.6z"/>
	<path class="st1" d="M113,205.2c0,0.7-0.6,1.3-1.3,1.3c-0.7,0-1.3-0.6-1.3-1.3c0-0.7,0.6-1.3,1.3-1.3
		C112.4,203.9,113,204.5,113,205.2z"/>
	<path class="st1" d="M114.4,217.2c0,0.6-0.5,1-1,1c-0.6,0-1-0.5-1-1s0.5-1,1-1C114,216.2,114.4,216.7,114.4,217.2z"/>
	<path class="st1" d="M167,205.7c0,0.6-0.5,1-1,1c-0.6,0-1-0.5-1-1c0-0.6,0.5-1,1-1C166.6,204.7,167,205.2,167,205.7z"/>
	<path class="st1" d="M142.6,214.4c0,0.6-0.5,1-1,1c-0.6,0-1-0.5-1-1s0.5-1,1-1C142.1,213.4,142.6,213.8,142.6,214.4z"/>
	<path class="st1" d="M208.4,226.9c0,0.6-0.5,1-1,1c-0.6,0-1-0.5-1-1s0.5-1,1-1C208,225.8,208.4,226.3,208.4,226.9z"/>
	<path class="st1" d="M213.8,178.3c0,0.7-0.6,1.3-1.3,1.3c-0.7,0-1.3-0.6-1.3-1.3c0-0.7,0.6-1.3,1.3-1.3
		C213.2,177.1,213.8,177.7,213.8,178.3z"/>
	<path class="st1" d="M203.7,185.2c0,0.6-0.5,1-1,1c-0.6,0-1-0.5-1-1c0-0.6,0.5-1,1-1C203.2,184.2,203.7,184.6,203.7,185.2z"/>
	<path class="st1" d="M213.7,187.2c0,0.7-0.6,1.3-1.3,1.3c-0.7,0-1.3-0.6-1.3-1.3s0.6-1.3,1.3-1.3
		C213.1,185.9,213.7,186.5,213.7,187.2z"/>
	<path class="st1" d="M203.7,199.4c0,0.6-0.5,1-1,1c-0.6,0-1-0.5-1-1s0.5-1,1-1C203.2,198.4,203.7,198.9,203.7,199.4z"/>
	<path class="st1" d="M229.5,171.5c0,0.6-0.5,1-1,1c-0.6,0-1-0.5-1-1c0-0.6,0.5-1,1-1C229,170.5,229.5,170.9,229.5,171.5z"/>
	<path class="st1" d="M232,177.7c0,0.7-0.6,1.3-1.3,1.3c-0.7,0-1.3-0.6-1.3-1.3c0-0.7,0.6-1.3,1.3-1.3
		C231.4,176.5,232,177,232,177.7z"/>
	<path class="st1" d="M249.7,185.1c0,0.7-0.6,1.3-1.3,1.3c-0.7,0-1.3-0.6-1.3-1.3c0-0.7,0.6-1.3,1.3-1.3
		C249.1,183.9,249.7,184.4,249.7,185.1z"/>
	<path class="st1" d="M231.7,198.3c0,0.6-0.5,1-1,1c-0.6,0-1-0.5-1-1s0.5-1,1-1C231.2,197.3,231.7,197.7,231.7,198.3z"/>
	<path class="st1" d="M243,187.6c0,0.6-0.5,1-1,1c-0.6,0-1-0.5-1-1c0-0.6,0.5-1,1-1C242.6,186.6,243,187,243,187.6z"/>
	<path class="st1" d="M241,204.1c0,0.6-0.5,1-1,1c-0.6,0-1-0.5-1-1c0-0.6,0.5-1,1-1C240.5,203.1,241,203.6,241,204.1z"/>
	<g>
		<path class="st1" d="M245.8,176.6c0,0.9-0.7,1.6-1.6,1.6c-0.9,0-1.6-0.7-1.6-1.6c0-0.9,0.7-1.6,1.6-1.6
			C245,175,245.8,175.7,245.8,176.6z"/>
	</g>
	<g>
		<polygon class="st1" points="244.2,171.8 243.7,176.1 239.4,176.6 243.7,177.1 244.2,181.6 244.7,177.1 249,176.5 244.7,176.1 		
			"/>
	</g>
	<g>
		<path class="st1" d="M234.7,204.1c0,0.9-0.7,1.6-1.6,1.6c-0.9,0-1.6-0.7-1.6-1.6c0-0.9,0.7-1.6,1.6-1.6
			C234,202.5,234.7,203.2,234.7,204.1z"/>
	</g>
	<g>
		<polygon class="st1" points="233.1,199.3 232.7,203.6 228.3,204.1 232.7,204.5 233.2,209 233.6,204.5 237.9,204 233.6,203.6 		"/>
	</g>
	<g>
		<path class="st1" d="M116.9,73.7c0,0.9-0.7,1.6-1.6,1.6c-0.9,0-1.6-0.7-1.6-1.6c0-0.9,0.7-1.6,1.6-1.6
			C116.1,72.1,116.9,72.8,116.9,73.7z"/>
	</g>
	<g>
		<polygon class="st1" points="115.3,68.9 114.8,73.2 110.5,73.7 114.8,74.2 115.3,78.7 115.8,74.2 120,73.6 115.7,73.2 		"/>
	</g>
	<g>
		<path class="st1" d="M175.6,35.5c0,0.9-0.7,1.6-1.6,1.6c-0.9,0-1.6-0.7-1.6-1.6s0.7-1.6,1.6-1.6C174.9,33.9,175.6,34.6,175.6,35.5
			z"/>
	</g>
	<g>
		<polygon class="st1" points="174,30.7 173.6,35 169.3,35.5 173.6,36 174.1,40.5 174.6,36 178.8,35.4 174.5,35 		"/>
	</g>
	<g>
		<path class="st1" d="M104.2,229.3c0,0.9-0.7,1.6-1.6,1.6s-1.6-0.7-1.6-1.6c0-0.9,0.7-1.6,1.6-1.6S104.2,228.5,104.2,229.3z"/>
	</g>
	<g>
		<polygon class="st1" points="102.6,224.5 102.2,228.8 97.9,229.3 102.2,229.8 102.7,234.3 103.1,229.8 107.4,229.2 103.1,228.8 		
			"/>
	</g>
	<path class="st2" d="M25.2,163.7c-6.9,3.4-13.1,6.7-18.3,10l3.2,1.2c4.6-2.8,10.1-5.8,15.9-8.4"/>
</g>
</svg>
